<svg xmlns="http://www.w3.org/2000/svg" width="512" height="512" viewBox="184 142 142 142" style="overflow: visible;" data-svgdocument="" id="__8UUUCGFXqEBiPdXBkwjb" class="fl-svgdocument" x="0" y="0" overflow="hidden" data-bbox="">
    <path id="_u6aTREytlFBPhHofybgGu" stroke="#ffffff" fill="rgb(30, 44, 57)" stroke-width="1" data-type="rect" data-x="-0.013" data-y="0" data-width="176.769" data-height="176.769" d="M-0.013 0H176.756 V176.769 H-0.013 Z" data-uid="o_fbg13a9i2_6" transform="matrix(1, 0, 0, 1, 183, 141)"/>
    <path text="TD" text-anchor="start" font-size="100" letter-spacing="0" side="left" offset="0" dx="0" dy="0" space="preserve" href="" font-family="Montserrat" font-scale="contain" transform="matrix(0.6250677704811096, 0, 0, 0.6250677704811096, 211.24966430664062, 234.10484313964844)" x="0" y="0" fill="#ffffff" font-weight="700" data-fl-textpath="" id="_fwusAKizgquUn5pjRCgls" data-uid="o_fbg13a9i2_7" d="M 22.8 0L 22.8-56.8L 0.4-56.8L 0.4-70L 61.4-70L 61.4-56.8L 39-56.8L 39 0L 22.8 0ZM 70.1 0L 70.1-70L 101.9-70Q 113.3-70  122.05-65.65Q 130.8-61.3  135.65-53.4Q 140.5-45.5  140.5-35L 140.5-35Q 140.5-24.5  135.65-16.6Q 130.8-8.7  122.05-4.35Q 113.3 0  101.9 0L 101.9 0L 70.1 0ZM 86.3-13.3L 101.1-13.3Q 111.6-13.3  117.85-19.15Q 124.1-25  124.1-35L 124.1-35Q 124.1-45  117.85-50.85Q 111.6-56.7  101.1-56.7L 101.1-56.7L 86.3-56.7L 86.3-13.3Z"/>
</svg>